<svg width="35" height="35" viewBox="0 0 35 35" fill="none" xmlns="http://www.w3.org/2000/svg">
<g clip-path="url(#clip0_41_312)">
<path d="M17.2253 0C12.2165 0 8.1416 4.07494 8.1416 9.08368C8.1416 14.0924 12.2165 18.1674 17.2253 18.1674C22.234 18.1674 26.309 14.0924 26.309 9.08368C26.309 4.07494 22.234 0 17.2253 0Z" fill="#007F5F"/>
<path d="M28.5272 24.1017C26.0403 21.5765 22.7435 20.1859 19.244 20.1859H15.2068C11.7074 20.1859 8.41046 21.5765 5.92355 24.1017C3.44883 26.6144 2.08594 29.9312 2.08594 33.4414C2.08594 33.9988 2.53783 34.4506 3.09523 34.4506H31.3556C31.913 34.4506 32.3649 33.9988 32.3649 33.4414C32.3649 29.9312 31.002 26.6144 28.5272 24.1017Z" fill="#007F5F"/>
</g>
<defs>
<clipPath id="clip0_41_312">
<rect width="34.4507" height="34.4507" fill="white"/>
</clipPath>
</defs>
</svg>
