<svg width="35" height="35" viewBox="0 0 35 35" fill="none" xmlns="http://www.w3.org/2000/svg">
<g clip-path="url(#clip0_41_332)">
<path d="M17.2255 20.1859C21.1207 20.1859 24.2906 17.0161 24.2906 13.1209C24.2906 9.22561 21.1207 6.05579 17.2255 6.05579C13.3302 6.05579 10.1604 9.22561 10.1604 13.1209C10.1604 17.0161 13.3302 20.1859 17.2255 20.1859ZM13.9019 12.4073L16.2162 14.7215L20.5491 10.3887L21.9763 11.8159L16.2162 17.576L12.4747 13.8345L13.9019 12.4073Z" fill="#007F5F"/>
<path d="M17.2254 34.4507L27.7155 21.0021L27.7273 20.9873C29.4405 18.7046 30.3462 15.9842 30.3462 13.1209C30.3462 5.88625 24.46 0 17.2254 0C9.99075 0 4.10449 5.88625 4.10449 13.1209C4.10449 15.9842 5.01023 18.7046 6.73524 21.0021L17.2254 34.4507ZM17.2254 4.03719C22.2343 4.03719 26.309 8.11197 26.309 13.1209C26.309 18.1298 22.2343 22.2045 17.2254 22.2045C12.2165 22.2045 8.14168 18.1298 8.14168 13.1209C8.14168 8.11197 12.2165 4.03719 17.2254 4.03719Z" fill="#007F5F"/>
</g>
<defs>
<clipPath id="clip0_41_332">
<rect width="34.4507" height="34.4507" fill="white"/>
</clipPath>
</defs>
</svg>
