<svg width="210" height="248" viewBox="0 0 210 248" fill="none" xmlns="http://www.w3.org/2000/svg">
<path id="Combined Shape" fill-rule="evenodd" clip-rule="evenodd" d="M201.397 14.5588C205.417 14.5588 208.676 11.2997 208.676 7.27941C208.676 3.2591 205.417 0 201.397 0C197.377 0 194.117 3.2591 194.117 7.27941C194.117 11.2997 197.377 14.5588 201.397 14.5588ZM201.397 53.3823C205.417 53.3823 208.676 50.1232 208.676 46.1029C208.676 42.0826 205.417 38.8235 201.397 38.8235C197.377 38.8235 194.117 42.0826 194.117 46.1029C194.117 50.1232 197.377 53.3823 201.397 53.3823ZM201.397 92.2058C205.417 92.2058 208.676 88.9467 208.676 84.9264C208.676 80.9061 205.417 77.647 201.397 77.647C197.377 77.647 194.117 80.9061 194.117 84.9264C194.117 88.9467 197.377 92.2058 201.397 92.2058ZM201.397 131.029C205.417 131.029 208.676 127.77 208.676 123.75C208.676 119.73 205.417 116.471 201.397 116.471C197.377 116.471 194.117 119.73 194.117 123.75C194.117 127.77 197.377 131.029 201.397 131.029ZM201.397 169.853C205.417 169.853 208.676 166.594 208.676 162.574C208.676 158.553 205.417 155.294 201.397 155.294C197.377 155.294 194.117 158.553 194.117 162.574C194.117 166.594 197.377 169.853 201.397 169.853ZM201.397 208.676C205.417 208.676 208.676 205.417 208.676 201.397C208.676 197.377 205.417 194.118 201.397 194.118C197.377 194.118 194.117 197.377 194.117 201.397C194.117 205.417 197.377 208.676 201.397 208.676ZM14.5588 240.221C14.5588 244.241 11.2997 247.5 7.27941 247.5C3.2591 247.5 0 244.241 0 240.221C0 236.2 3.2591 232.941 7.27941 232.941C11.2997 232.941 14.5588 236.2 14.5588 240.221ZM46.1029 247.5C50.1232 247.5 53.3823 244.241 53.3823 240.221C53.3823 236.2 50.1232 232.941 46.1029 232.941C42.0826 232.941 38.8235 236.2 38.8235 240.221C38.8235 244.241 42.0826 247.5 46.1029 247.5ZM92.2058 240.221C92.2058 244.241 88.9467 247.5 84.9264 247.5C80.9061 247.5 77.647 244.241 77.647 240.221C77.647 236.2 80.9061 232.941 84.9264 232.941C88.9467 232.941 92.2058 236.2 92.2058 240.221ZM123.75 247.5C127.77 247.5 131.029 244.241 131.029 240.221C131.029 236.2 127.77 232.941 123.75 232.941C119.73 232.941 116.47 236.2 116.47 240.221C116.47 244.241 119.73 247.5 123.75 247.5ZM169.853 240.221C169.853 244.241 166.594 247.5 162.573 247.5C158.553 247.5 155.294 244.241 155.294 240.221C155.294 236.2 158.553 232.941 162.573 232.941C166.594 232.941 169.853 236.2 169.853 240.221ZM208.676 240.221C208.676 244.241 205.417 247.5 201.397 247.5C197.377 247.5 194.117 244.241 194.117 240.221C194.117 236.2 197.377 232.941 201.397 232.941C205.417 232.941 208.676 236.2 208.676 240.221ZM169.853 201.397C169.853 205.417 166.594 208.676 162.573 208.676C158.553 208.676 155.294 205.417 155.294 201.397C155.294 197.377 158.553 194.118 162.573 194.118C166.594 194.118 169.853 197.377 169.853 201.397ZM123.75 208.676C127.77 208.676 131.029 205.417 131.029 201.397C131.029 197.377 127.77 194.118 123.75 194.118C119.73 194.118 116.47 197.377 116.47 201.397C116.47 205.417 119.73 208.676 123.75 208.676ZM92.2058 201.397C92.2058 205.417 88.9467 208.676 84.9264 208.676C80.9061 208.676 77.647 205.417 77.647 201.397C77.647 197.377 80.9061 194.118 84.9264 194.118C88.9467 194.118 92.2058 197.377 92.2058 201.397ZM46.1029 208.676C50.1232 208.676 53.3823 205.417 53.3823 201.397C53.3823 197.377 50.1232 194.118 46.1029 194.118C42.0826 194.118 38.8235 197.377 38.8235 201.397C38.8235 205.417 42.0826 208.676 46.1029 208.676ZM14.5588 201.397C14.5588 205.417 11.2997 208.676 7.27941 208.676C3.2591 208.676 0 205.417 0 201.397C0 197.377 3.2591 194.118 7.27941 194.118C11.2997 194.118 14.5588 197.377 14.5588 201.397ZM169.853 162.574C169.853 166.594 166.594 169.853 162.573 169.853C158.553 169.853 155.294 166.594 155.294 162.574C155.294 158.553 158.553 155.294 162.573 155.294C166.594 155.294 169.853 158.553 169.853 162.574ZM123.75 169.853C127.77 169.853 131.029 166.594 131.029 162.574C131.029 158.553 127.77 155.294 123.75 155.294C119.73 155.294 116.47 158.553 116.47 162.574C116.47 166.594 119.73 169.853 123.75 169.853ZM92.2058 162.574C92.2058 166.594 88.9467 169.853 84.9264 169.853C80.9061 169.853 77.647 166.594 77.647 162.574C77.647 158.553 80.9061 155.294 84.9264 155.294C88.9467 155.294 92.2058 158.553 92.2058 162.574ZM46.1029 169.853C50.1232 169.853 53.3823 166.594 53.3823 162.574C53.3823 158.553 50.1232 155.294 46.1029 155.294C42.0826 155.294 38.8235 158.553 38.8235 162.574C38.8235 166.594 42.0826 169.853 46.1029 169.853ZM14.5588 162.574C14.5588 166.594 11.2997 169.853 7.27941 169.853C3.2591 169.853 0 166.594 0 162.574C0 158.553 3.2591 155.294 7.27941 155.294C11.2997 155.294 14.5588 158.553 14.5588 162.574ZM169.853 123.75C169.853 127.77 166.594 131.029 162.573 131.029C158.553 131.029 155.294 127.77 155.294 123.75C155.294 119.73 158.553 116.471 162.573 116.471C166.594 116.471 169.853 119.73 169.853 123.75ZM123.75 131.029C127.77 131.029 131.029 127.77 131.029 123.75C131.029 119.73 127.77 116.471 123.75 116.471C119.73 116.471 116.47 119.73 116.47 123.75C116.47 127.77 119.73 131.029 123.75 131.029ZM92.2058 123.75C92.2058 127.77 88.9467 131.029 84.9264 131.029C80.9061 131.029 77.647 127.77 77.647 123.75C77.647 119.73 80.9061 116.471 84.9264 116.471C88.9467 116.471 92.2058 119.73 92.2058 123.75ZM46.1029 131.029C50.1232 131.029 53.3823 127.77 53.3823 123.75C53.3823 119.73 50.1232 116.471 46.1029 116.471C42.0826 116.471 38.8235 119.73 38.8235 123.75C38.8235 127.77 42.0826 131.029 46.1029 131.029ZM14.5588 123.75C14.5588 127.77 11.2997 131.029 7.27941 131.029C3.2591 131.029 0 127.77 0 123.75C0 119.73 3.2591 116.471 7.27941 116.471C11.2997 116.471 14.5588 119.73 14.5588 123.75ZM169.853 84.9264C169.853 88.9467 166.594 92.2058 162.573 92.2058C158.553 92.2058 155.294 88.9467 155.294 84.9264C155.294 80.9061 158.553 77.647 162.573 77.647C166.594 77.647 169.853 80.9061 169.853 84.9264ZM123.75 92.2058C127.77 92.2058 131.029 88.9467 131.029 84.9264C131.029 80.9061 127.77 77.647 123.75 77.647C119.73 77.647 116.47 80.9061 116.47 84.9264C116.47 88.9467 119.73 92.2058 123.75 92.2058ZM92.2058 84.9264C92.2058 88.9467 88.9467 92.2058 84.9264 92.2058C80.9061 92.2058 77.647 88.9467 77.647 84.9264C77.647 80.9061 80.9061 77.647 84.9264 77.647C88.9467 77.647 92.2058 80.9061 92.2058 84.9264ZM46.1029 92.2058C50.1232 92.2058 53.3823 88.9467 53.3823 84.9264C53.3823 80.9061 50.1232 77.647 46.1029 77.647C42.0826 77.647 38.8235 80.9061 38.8235 84.9264C38.8235 88.9467 42.0826 92.2058 46.1029 92.2058ZM14.5588 84.9264C14.5588 88.9467 11.2997 92.2058 7.27941 92.2058C3.2591 92.2058 0 88.9467 0 84.9264C0 80.9061 3.2591 77.647 7.27941 77.647C11.2997 77.647 14.5588 80.9061 14.5588 84.9264ZM169.853 46.1029C169.853 50.1232 166.594 53.3823 162.573 53.3823C158.553 53.3823 155.294 50.1232 155.294 46.1029C155.294 42.0826 158.553 38.8235 162.573 38.8235C166.594 38.8235 169.853 42.0826 169.853 46.1029ZM123.75 53.3823C127.77 53.3823 131.029 50.1232 131.029 46.1029C131.029 42.0826 127.77 38.8235 123.75 38.8235C119.73 38.8235 116.47 42.0826 116.47 46.1029C116.47 50.1232 119.73 53.3823 123.75 53.3823ZM92.2058 46.1029C92.2058 50.1232 88.9467 53.3823 84.9264 53.3823C80.9061 53.3823 77.647 50.1232 77.647 46.1029C77.647 42.0826 80.9061 38.8235 84.9264 38.8235C88.9467 38.8235 92.2058 42.0826 92.2058 46.1029ZM46.1029 53.3823C50.1232 53.3823 53.3823 50.1232 53.3823 46.1029C53.3823 42.0826 50.1232 38.8235 46.1029 38.8235C42.0826 38.8235 38.8235 42.0826 38.8235 46.1029C38.8235 50.1232 42.0826 53.3823 46.1029 53.3823ZM14.5588 46.1029C14.5588 50.1232 11.2997 53.3823 7.27941 53.3823C3.2591 53.3823 0 50.1232 0 46.1029C0 42.0826 3.2591 38.8235 7.27941 38.8235C11.2997 38.8235 14.5588 42.0826 14.5588 46.1029ZM169.853 7.27941C169.853 11.2997 166.594 14.5588 162.573 14.5588C158.553 14.5588 155.294 11.2997 155.294 7.27941C155.294 3.2591 158.553 0 162.573 0C166.594 0 169.853 3.2591 169.853 7.27941ZM123.75 14.5588C127.77 14.5588 131.029 11.2997 131.029 7.27941C131.029 3.2591 127.77 0 123.75 0C119.73 0 116.47 3.2591 116.47 7.27941C116.47 11.2997 119.73 14.5588 123.75 14.5588ZM92.2058 7.27941C92.2058 11.2997 88.9467 14.5588 84.9264 14.5588C80.9061 14.5588 77.647 11.2997 77.647 7.27941C77.647 3.2591 80.9061 0 84.9264 0C88.9467 0 92.2058 3.2591 92.2058 7.27941ZM46.1029 14.5588C50.1232 14.5588 53.3823 11.2997 53.3823 7.27941C53.3823 3.2591 50.1232 0 46.1029 0C42.0826 0 38.8235 3.2591 38.8235 7.27941C38.8235 11.2997 42.0826 14.5588 46.1029 14.5588ZM14.5588 7.27941C14.5588 11.2997 11.2997 14.5588 7.27941 14.5588C3.2591 14.5588 0 11.2997 0 7.27941C0 3.2591 3.2591 0 7.27941 0C11.2997 0 14.5588 3.2591 14.5588 7.27941Z" fill="#0984E3" fill-opacity="0.2"/>
</svg>
