<svg width="37" height="35" viewBox="0 0 37 35" fill="none" xmlns="http://www.w3.org/2000/svg">
<path d="M29.8181 22.6174C28.1944 24.5211 25.5642 25.761 22.6007 25.761H18.4426C17.0062 25.761 15.783 24.9825 15.3198 23.8929C14.748 23.7473 14.1874 23.5584 13.6402 23.3263C12.4816 22.8349 11.4295 22.1691 10.5034 21.3443C4.49608 22.4709 0 27.0403 0 32.5069V33.2214C0 34.2037 0.932807 35 2.08343 35H34.4082C35.5588 35 36.4916 34.2037 36.4916 33.2214V32.5069C36.4915 28.2839 33.8082 24.5962 29.8181 22.6174Z" fill="#007F5F"/>
<path d="M8.28884 17.6785C9.18427 17.6785 9.96366 17.2548 10.3674 16.6296C10.3781 16.6544 10.3889 16.679 10.3997 16.7036C10.4029 16.7109 10.4062 16.7183 10.4094 16.7257C11.3566 18.8542 13.1998 20.6385 15.6302 21.4181C16.218 20.6208 17.2574 20.0906 18.4425 20.0906H22.6006C23.0154 20.0906 23.4014 19.9907 23.7398 19.8292C24.3082 19.5579 24.8193 18.8696 25.0832 18.5048C25.5055 17.9211 25.8328 17.3027 26.1229 16.6286C26.286 16.8813 26.5102 17.1012 26.7789 17.2736V18.1439C26.7789 20.1107 24.9045 21.7108 22.6005 21.7108H18.4424C17.6563 21.7108 17.019 22.2548 17.019 22.9259C17.019 23.597 17.6563 24.1409 18.4424 24.1409H22.6005C26.4742 24.1409 29.6257 21.4507 29.6257 18.1439V17.2736C30.2019 16.904 30.5746 16.3159 30.5746 15.6534V11.9895V10.5846C30.5746 9.90842 30.1862 9.31018 29.5897 8.94233C29.1271 3.94537 24.216 0 18.2456 0C12.275 0 7.36397 3.94537 6.9014 8.94226C6.30495 9.3101 5.9165 9.90842 5.9165 10.5845V15.6533C5.9165 16.7749 6.98391 17.6785 8.28884 17.6785ZM18.2456 2.43022C22.6654 2.43022 26.3109 5.31356 26.737 8.99251C26.4573 9.18035 26.2281 9.42043 26.0702 9.69591C24.7271 6.7046 21.7289 4.62197 18.2455 4.62197C14.6869 4.62197 11.7368 6.77617 10.426 9.68396C10.4242 9.68792 10.4225 9.69195 10.4207 9.69599C10.2628 9.42051 10.0337 9.18043 9.75396 8.99259C10.1803 5.31356 13.8257 2.43022 18.2456 2.43022Z" fill="#007F5F"/>
</svg>
