<svg width="16" height="16" viewBox="0 0 16 16" fill="none" xmlns="http://www.w3.org/2000/svg">
<path d="M15.9583 6.1376C15.8535 5.81362 15.5662 5.58351 15.2262 5.55287L10.6082 5.13355L8.78208 0.859388C8.64743 0.546148 8.34079 0.343384 8.00008 0.343384C7.65937 0.343384 7.35272 0.546148 7.21808 0.860121L5.39198 5.13355L0.773211 5.55287C0.433847 5.58424 0.147219 5.81362 0.0418692 6.1376C-0.0634802 6.46158 0.0338123 6.81694 0.290533 7.04094L3.78122 10.1023L2.7519 14.6365C2.67658 14.9699 2.80598 15.3145 3.0826 15.5144C3.23128 15.6219 3.40524 15.6765 3.58066 15.6765C3.7319 15.6765 3.88193 15.6358 4.01658 15.5552L8.00008 13.1744L11.9821 15.5552C12.2735 15.7305 12.6408 15.7145 12.9168 15.5144C13.1936 15.3139 13.3228 14.9691 13.2475 14.6365L12.2182 10.1023L15.7089 7.04155C15.9656 6.81694 16.0636 6.46219 15.9583 6.1376Z" fill="#E0E0E0"/>
</svg>
