<svg width="37" height="41" viewBox="0 0 37 41" fill="none" xmlns="http://www.w3.org/2000/svg">
<path d="M6.06433 0V25.0654C6.06433 25.4725 5.68785 25.8026 5.22351 25.8026H0.589111L18.6767 41.0005L36.7647 25.8026H32.1299C31.6656 25.8026 31.2891 25.4725 31.2891 25.0654V0H6.06433ZM21.1992 1.47443H22.8809V2.94887H21.1992V1.47443ZM17.8359 1.47443H19.5175V2.94887H17.8359V1.47443ZM14.4726 1.47443H16.1542V2.94887H14.4726V1.47443ZM9.42764 2.94887H7.74599V1.47443H9.42764V2.94887ZM12.7909 2.94887H11.1093V1.47443H12.7909V2.94887ZM18.6767 15.4816C21.2883 15.4949 23.4565 17.253 23.6749 19.5348C23.8933 21.8163 22.0901 23.867 19.5175 24.2619V25.8026H17.8359V24.2619C15.4115 23.9005 13.6363 22.0611 13.6318 19.9049H15.3134C15.3134 21.5334 16.8194 22.8537 18.6767 22.8537C20.5345 22.8537 22.04 21.5334 22.04 19.9049C22.04 18.2764 20.5345 16.956 18.6767 16.956C16.0656 16.9427 13.8974 15.1846 13.679 12.9027C13.4602 10.6213 15.2637 8.57051 17.8359 8.17562V6.63495H19.5175V8.17562C21.9419 8.53703 23.7172 10.3765 23.7217 12.5327H22.04C22.04 10.9042 20.5345 9.58382 18.6767 9.58382C16.8194 9.58382 15.3134 10.9042 15.3134 12.5327C15.3134 14.1612 16.8194 15.4816 18.6767 15.4816ZM26.2442 2.94887H24.5625V1.47443H26.2442V2.94887ZM29.6075 2.94887H27.9258V1.47443H29.6075V2.94887Z" fill="#007F5F"/>
</svg>
